<?xml version="1.0" encoding="UTF-8"?>
<!DOCTYPE svg PUBLIC "-//W3C//DTD SVG 1.1//EN" "http://www.w3.org/Graphics/SVG/1.1/DTD/svg11.dtd">
<svg width="160mm" height="90mm" viewBox="0 0 16000 9000" version="1.1" xmlns="http://www.w3.org/2000/svg" xmlns:xlink="http://www.w3.org/1999/xlink" stroke-width="28.222" stroke-linejoin="round" xml:space="preserve">
 <path fill="rgb(255,255,255)" stroke="none" d="M 8000,8999 L 0,8999 0,0 15999,0 15999,8999 8000,8999 Z"/>
 <path fill="none" stroke="rgb(179,179,179)" stroke-linejoin="round" d="M 7535,7191 L 2429,7191 2429,2337 12640,2337 12640,7191 7535,7191 Z"/>
 <path fill="none" stroke="rgb(179,179,179)" stroke-linejoin="round" d="M 12640,7189 L 2429,7189"/>
 <path fill="none" stroke="rgb(179,179,179)" stroke-linejoin="round" d="M 12640,6704 L 2429,6704"/>
 <path fill="none" stroke="rgb(179,179,179)" stroke-linejoin="round" d="M 12640,6218 L 2429,6218"/>
 <path fill="none" stroke="rgb(179,179,179)" stroke-linejoin="round" d="M 12640,5733 L 2429,5733"/>
 <path fill="none" stroke="rgb(179,179,179)" stroke-linejoin="round" d="M 12640,5248 L 2429,5248"/>
 <path fill="none" stroke="rgb(179,179,179)" stroke-linejoin="round" d="M 12640,4762 L 2429,4762"/>
 <path fill="none" stroke="rgb(179,179,179)" stroke-linejoin="round" d="M 12640,4278 L 2429,4278"/>
 <path fill="none" stroke="rgb(179,179,179)" stroke-linejoin="round" d="M 12640,3792 L 2429,3792"/>
 <path fill="none" stroke="rgb(179,179,179)" stroke-linejoin="round" d="M 12640,3307 L 2429,3307"/>
 <path fill="none" stroke="rgb(179,179,179)" stroke-linejoin="round" d="M 12640,2821 L 2429,2821"/>
 <path fill="none" stroke="rgb(179,179,179)" stroke-linejoin="round" d="M 12640,2336 L 2429,2336"/>
 <path fill="none" stroke="rgb(179,179,179)" stroke-linejoin="round" d="M 2429,7339 L 2429,7189"/>
 <path fill="none" stroke="rgb(179,179,179)" stroke-linejoin="round" d="M 2429,7339 L 2429,7189"/>
 <path fill="none" stroke="rgb(179,179,179)" stroke-linejoin="round" d="M 3280,7339 L 3280,7189"/>
 <path fill="none" stroke="rgb(179,179,179)" stroke-linejoin="round" d="M 3280,7339 L 3280,7189"/>
 <path fill="none" stroke="rgb(179,179,179)" stroke-linejoin="round" d="M 4131,7339 L 4131,7189"/>
 <path fill="none" stroke="rgb(179,179,179)" stroke-linejoin="round" d="M 4131,7339 L 4131,7189"/>
 <path fill="none" stroke="rgb(179,179,179)" stroke-linejoin="round" d="M 4982,7339 L 4982,7189"/>
 <path fill="none" stroke="rgb(179,179,179)" stroke-linejoin="round" d="M 4982,7339 L 4982,7189"/>
 <path fill="none" stroke="rgb(179,179,179)" stroke-linejoin="round" d="M 5833,7339 L 5833,7189"/>
 <path fill="none" stroke="rgb(179,179,179)" stroke-linejoin="round" d="M 5833,7339 L 5833,7189"/>
 <path fill="none" stroke="rgb(179,179,179)" stroke-linejoin="round" d="M 6684,7339 L 6684,7189"/>
 <path fill="none" stroke="rgb(179,179,179)" stroke-linejoin="round" d="M 6684,7339 L 6684,7189"/>
 <path fill="none" stroke="rgb(179,179,179)" stroke-linejoin="round" d="M 7535,7339 L 7535,7189"/>
 <path fill="none" stroke="rgb(179,179,179)" stroke-linejoin="round" d="M 7535,7339 L 7535,7189"/>
 <path fill="none" stroke="rgb(179,179,179)" stroke-linejoin="round" d="M 8385,7339 L 8385,7189"/>
 <path fill="none" stroke="rgb(179,179,179)" stroke-linejoin="round" d="M 8385,7339 L 8385,7189"/>
 <path fill="none" stroke="rgb(179,179,179)" stroke-linejoin="round" d="M 9236,7339 L 9236,7189"/>
 <path fill="none" stroke="rgb(179,179,179)" stroke-linejoin="round" d="M 9236,7339 L 9236,7189"/>
 <path fill="none" stroke="rgb(179,179,179)" stroke-linejoin="round" d="M 10087,7339 L 10087,7189"/>
 <path fill="none" stroke="rgb(179,179,179)" stroke-linejoin="round" d="M 10087,7339 L 10087,7189"/>
 <path fill="none" stroke="rgb(179,179,179)" stroke-linejoin="round" d="M 10938,7339 L 10938,7189"/>
 <path fill="none" stroke="rgb(179,179,179)" stroke-linejoin="round" d="M 10938,7339 L 10938,7189"/>
 <path fill="none" stroke="rgb(179,179,179)" stroke-linejoin="round" d="M 11789,7339 L 11789,7189"/>
 <path fill="none" stroke="rgb(179,179,179)" stroke-linejoin="round" d="M 11789,7339 L 11789,7189"/>
 <path fill="none" stroke="rgb(179,179,179)" stroke-linejoin="round" d="M 12640,7339 L 12640,7189"/>
 <path fill="none" stroke="rgb(179,179,179)" stroke-linejoin="round" d="M 12640,7339 L 12640,7189"/>
 <path fill="none" stroke="rgb(179,179,179)" stroke-linejoin="round" d="M 2429,7189 L 12640,7189"/>
 <path fill="none" stroke="rgb(179,179,179)" stroke-linejoin="round" d="M 2279,7189 L 2429,7189"/>
 <path fill="none" stroke="rgb(179,179,179)" stroke-linejoin="round" d="M 2279,7189 L 2429,7189"/>
 <path fill="none" stroke="rgb(179,179,179)" stroke-linejoin="round" d="M 2279,6704 L 2429,6704"/>
 <path fill="none" stroke="rgb(179,179,179)" stroke-linejoin="round" d="M 2279,6704 L 2429,6704"/>
 <path fill="none" stroke="rgb(179,179,179)" stroke-linejoin="round" d="M 2279,6218 L 2429,6218"/>
 <path fill="none" stroke="rgb(179,179,179)" stroke-linejoin="round" d="M 2279,6218 L 2429,6218"/>
 <path fill="none" stroke="rgb(179,179,179)" stroke-linejoin="round" d="M 2279,5733 L 2429,5733"/>
 <path fill="none" stroke="rgb(179,179,179)" stroke-linejoin="round" d="M 2279,5733 L 2429,5733"/>
 <path fill="none" stroke="rgb(179,179,179)" stroke-linejoin="round" d="M 2279,5247 L 2429,5247"/>
 <path fill="none" stroke="rgb(179,179,179)" stroke-linejoin="round" d="M 2279,5247 L 2429,5247"/>
 <path fill="none" stroke="rgb(179,179,179)" stroke-linejoin="round" d="M 2279,4762 L 2429,4762"/>
 <path fill="none" stroke="rgb(179,179,179)" stroke-linejoin="round" d="M 2279,4762 L 2429,4762"/>
 <path fill="none" stroke="rgb(179,179,179)" stroke-linejoin="round" d="M 2279,4277 L 2429,4277"/>
 <path fill="none" stroke="rgb(179,179,179)" stroke-linejoin="round" d="M 2279,4277 L 2429,4277"/>
 <path fill="none" stroke="rgb(179,179,179)" stroke-linejoin="round" d="M 2279,3792 L 2429,3792"/>
 <path fill="none" stroke="rgb(179,179,179)" stroke-linejoin="round" d="M 2279,3792 L 2429,3792"/>
 <path fill="none" stroke="rgb(179,179,179)" stroke-linejoin="round" d="M 2279,3306 L 2429,3306"/>
 <path fill="none" stroke="rgb(179,179,179)" stroke-linejoin="round" d="M 2279,3306 L 2429,3306"/>
 <path fill="none" stroke="rgb(179,179,179)" stroke-linejoin="round" d="M 2279,2821 L 2429,2821"/>
 <path fill="none" stroke="rgb(179,179,179)" stroke-linejoin="round" d="M 2279,2821 L 2429,2821"/>
 <path fill="none" stroke="rgb(179,179,179)" stroke-linejoin="round" d="M 2279,2336 L 2429,2336"/>
 <path fill="none" stroke="rgb(179,179,179)" stroke-linejoin="round" d="M 2279,2336 L 2429,2336"/>
 <path fill="none" stroke="rgb(179,179,179)" stroke-linejoin="round" d="M 2429,7189 L 2429,2336"/>
 <path fill="none" stroke="rgb(255,56,56)" stroke-width="80" stroke-linejoin="round" d="M 2429,2879 L 3280,3468 4131,3815 4982,4073 5833,4279 6684,4466 7535,4630 8385,4773 9236,4935 10087,5063 10938,5188 11789,5332 12640,5475"/>
 <text class="TextShape"><tspan class="TextParagraph" font-family="Liberation Sans, sans-serif" font-size="353px" font-weight="400"><tspan class="TextPosition" x="2336" y="7757"><tspan fill="rgb(0,0,0)" stroke="none">1</tspan></tspan></tspan></text>
 <text class="TextShape"><tspan class="TextParagraph" font-family="Liberation Sans, sans-serif" font-size="353px" font-weight="400"><tspan class="TextPosition" x="3187" y="7757"><tspan fill="rgb(0,0,0)" stroke="none">2</tspan></tspan></tspan></text>
 <text class="TextShape"><tspan class="TextParagraph" font-family="Liberation Sans, sans-serif" font-size="353px" font-weight="400"><tspan class="TextPosition" x="4038" y="7757"><tspan fill="rgb(0,0,0)" stroke="none">3</tspan></tspan></tspan></text>
 <text class="TextShape"><tspan class="TextParagraph" font-family="Liberation Sans, sans-serif" font-size="353px" font-weight="400"><tspan class="TextPosition" x="4889" y="7757"><tspan fill="rgb(0,0,0)" stroke="none">4</tspan></tspan></tspan></text>
 <text class="TextShape"><tspan class="TextParagraph" font-family="Liberation Sans, sans-serif" font-size="353px" font-weight="400"><tspan class="TextPosition" x="5740" y="7757"><tspan fill="rgb(0,0,0)" stroke="none">5</tspan></tspan></tspan></text>
 <text class="TextShape"><tspan class="TextParagraph" font-family="Liberation Sans, sans-serif" font-size="353px" font-weight="400"><tspan class="TextPosition" x="6591" y="7757"><tspan fill="rgb(0,0,0)" stroke="none">6</tspan></tspan></tspan></text>
 <text class="TextShape"><tspan class="TextParagraph" font-family="Liberation Sans, sans-serif" font-size="353px" font-weight="400"><tspan class="TextPosition" x="7442" y="7757"><tspan fill="rgb(0,0,0)" stroke="none">7</tspan></tspan></tspan></text>
 <text class="TextShape"><tspan class="TextParagraph" font-family="Liberation Sans, sans-serif" font-size="353px" font-weight="400"><tspan class="TextPosition" x="8293" y="7757"><tspan fill="rgb(0,0,0)" stroke="none">8</tspan></tspan></tspan></text>
 <text class="TextShape"><tspan class="TextParagraph" font-family="Liberation Sans, sans-serif" font-size="353px" font-weight="400"><tspan class="TextPosition" x="9144" y="7757"><tspan fill="rgb(0,0,0)" stroke="none">9</tspan></tspan></tspan></text>
 <text class="TextShape"><tspan class="TextParagraph" font-family="Liberation Sans, sans-serif" font-size="353px" font-weight="400"><tspan class="TextPosition" x="9903" y="7757"><tspan fill="rgb(0,0,0)" stroke="none">10</tspan></tspan></tspan></text>
 <text class="TextShape"><tspan class="TextParagraph" font-family="Liberation Sans, sans-serif" font-size="353px" font-weight="400"><tspan class="TextPosition" x="10754" y="7757"><tspan fill="rgb(0,0,0)" stroke="none">11</tspan></tspan></tspan></text>
 <text class="TextShape"><tspan class="TextParagraph" font-family="Liberation Sans, sans-serif" font-size="353px" font-weight="400"><tspan class="TextPosition" x="11605" y="7757"><tspan fill="rgb(0,0,0)" stroke="none">12</tspan></tspan></tspan></text>
 <text class="TextShape"><tspan class="TextParagraph" font-family="Liberation Sans, sans-serif" font-size="353px" font-weight="400"><tspan class="TextPosition" x="12456" y="7757"><tspan fill="rgb(0,0,0)" stroke="none">13</tspan></tspan></tspan></text>
 <text class="TextShape"><tspan class="TextParagraph" font-family="Liberation Sans, sans-serif" font-size="353px" font-weight="400"><tspan class="TextPosition" x="1332" y="7310"><tspan fill="rgb(0,0,0)" stroke="none">0.605</tspan></tspan></tspan></text>
 <text class="TextShape"><tspan class="TextParagraph" font-family="Liberation Sans, sans-serif" font-size="353px" font-weight="400"><tspan class="TextPosition" x="1518" y="6825"><tspan fill="rgb(0,0,0)" stroke="none">0.61</tspan></tspan></tspan></text>
 <text class="TextShape"><tspan class="TextParagraph" font-family="Liberation Sans, sans-serif" font-size="353px" font-weight="400"><tspan class="TextPosition" x="1332" y="6339"><tspan fill="rgb(0,0,0)" stroke="none">0.615</tspan></tspan></tspan></text>
 <text class="TextShape"><tspan class="TextParagraph" font-family="Liberation Sans, sans-serif" font-size="353px" font-weight="400"><tspan class="TextPosition" x="1518" y="5854"><tspan fill="rgb(0,0,0)" stroke="none">0.62</tspan></tspan></tspan></text>
 <text class="TextShape"><tspan class="TextParagraph" font-family="Liberation Sans, sans-serif" font-size="353px" font-weight="400"><tspan class="TextPosition" x="1332" y="5368"><tspan fill="rgb(0,0,0)" stroke="none">0.625</tspan></tspan></tspan></text>
 <text class="TextShape"><tspan class="TextParagraph" font-family="Liberation Sans, sans-serif" font-size="353px" font-weight="400"><tspan class="TextPosition" x="1518" y="4883"><tspan fill="rgb(0,0,0)" stroke="none">0.63</tspan></tspan></tspan></text>
 <text class="TextShape"><tspan class="TextParagraph" font-family="Liberation Sans, sans-serif" font-size="353px" font-weight="400"><tspan class="TextPosition" x="1332" y="4397"><tspan fill="rgb(0,0,0)" stroke="none">0.635</tspan></tspan></tspan></text>
 <text class="TextShape"><tspan class="TextParagraph" font-family="Liberation Sans, sans-serif" font-size="353px" font-weight="400"><tspan class="TextPosition" x="1518" y="3912"><tspan fill="rgb(0,0,0)" stroke="none">0.64</tspan></tspan></tspan></text>
 <text class="TextShape"><tspan class="TextParagraph" font-family="Liberation Sans, sans-serif" font-size="353px" font-weight="400"><tspan class="TextPosition" x="1332" y="3426"><tspan fill="rgb(0,0,0)" stroke="none">0.645</tspan></tspan></tspan></text>
 <text class="TextShape"><tspan class="TextParagraph" font-family="Liberation Sans, sans-serif" font-size="353px" font-weight="400"><tspan class="TextPosition" x="1518" y="2941"><tspan fill="rgb(0,0,0)" stroke="none">0.65</tspan></tspan></tspan></text>
 <text class="TextShape"><tspan class="TextParagraph" font-family="Liberation Sans, sans-serif" font-size="353px" font-weight="400"><tspan class="TextPosition" x="1332" y="2456"><tspan fill="rgb(0,0,0)" stroke="none">0.655</tspan></tspan></tspan></text>
 <text class="TextShape"><tspan class="TextParagraph" font-family="Liberation Sans, sans-serif" font-size="459px" font-weight="400"><tspan class="TextPosition" x="6664" y="851"><tspan fill="rgb(0,0,0)" stroke="none">Training Loss</tspan></tspan></tspan></text>
 <text class="TextShape"><tspan class="TextParagraph" font-family="Liberation Sans, sans-serif" font-size="388px" font-weight="400"><tspan class="TextPosition" x="5301" y="1761"><tspan fill="rgb(0,0,0)" stroke="none">Rubix ML Multilayer Perceptron</tspan></tspan></tspan></text>
 <path fill="none" stroke="rgb(255,56,56)" stroke-width="80" stroke-linejoin="round" d="M 13263,4499 L 14063,4499"/>
 <text class="TextShape"><tspan class="TextParagraph" font-family="Liberation Sans, sans-serif" font-size="353px" font-weight="400"><tspan class="TextPosition" x="14163" y="4618"><tspan fill="rgb(0,0,0)" stroke="none">Column B</tspan></tspan></tspan></text>
 <text class="TextShape"><tspan class="TextParagraph" font-family="Liberation Sans, sans-serif" font-size="318px" font-weight="400"><tspan class="TextPosition" x="6616" y="8405"><tspan fill="rgb(0,0,0)" stroke="none">Epoch</tspan></tspan></tspan></text>
 <text class="TextShape" transform="rotate(-90 837 6006)"><tspan class="TextParagraph" font-family="Liberation Sans, sans-serif" font-size="318px" font-weight="400"><tspan class="TextPosition" x="837" y="6006"><tspan fill="rgb(0,0,0)" stroke="none">Cross Entropy</tspan></tspan></tspan></text>
</svg>